<svg xmlns="http://www.w3.org/2000/svg" width="800" height="1400" viewBox="0 0 800 1400">
  <defs>
    <linearGradient id="bg" x1="0" y1="0" x2="0" y2="1">
      <stop offset="0%" stop-color="#faf7f0"/>
      <stop offset="100%" stop-color="#ede5d6"/>
    </linearGradient>
    <radialGradient id="lamp" cx="50%" cy="36%" r="28%">
      <stop offset="0%" stop-color="#d7b36a" stop-opacity="0.65"/>
      <stop offset="100%" stop-color="#d7b36a" stop-opacity="0"/>
    </radialGradient>
  </defs>
  <rect width="800" height="1400" fill="url(#bg)"/>
  <rect x="36" y="36" width="728" height="1328" rx="28" fill="none" stroke="#1f1724" stroke-opacity="0.18" stroke-width="4"/>
  <circle cx="400" cy="460" r="220" fill="url(#lamp)"/>
  <path d="M400 300 c-55 0-100 38-100 92v150c0 55 45 92 100 92s100-37 100-92V392c0-54-45-92-100-92z" fill="none" stroke="#1f1724" stroke-width="8"/>
  <path d="M400 392 v300" stroke="#1f1724" stroke-width="8" stroke-linecap="round"/>
  <path d="M400 490 h130" stroke="#c8a97e" stroke-width="6" stroke-linecap="round"/>
  <circle cx="530" cy="490" r="24" fill="none" stroke="#c8a97e" stroke-width="6"/>
  <path d="M240 920 C310 860, 490 860, 560 920" fill="none" stroke="#1f1724" stroke-width="8" stroke-linecap="round"/>
  <text x="400" y="110" text-anchor="middle" font-family="Georgia,serif" font-size="46" letter-spacing="6" fill="#6d6574">THE HERMIT</text>
  <text x="400" y="1320" text-anchor="middle" font-family="Georgia,serif" font-size="40" letter-spacing="6" fill="#6d6574">IX</text>
</svg>