<svg xmlns="http://www.w3.org/2000/svg" width="800" height="1400" viewBox="0 0 800 1400">
  <defs>
    <linearGradient id="bg" x1="0" y1="0" x2="0" y2="1">
      <stop offset="0%" stop-color="#fbf7f4"/>
      <stop offset="100%" stop-color="#ece3d4"/>
    </linearGradient>
    <radialGradient id="starGlow" cx="50%" cy="26%" r="42%">
      <stop offset="0%" stop-color="#d7b36a" stop-opacity="0.5"/>
      <stop offset="100%" stop-color="#d7b36a" stop-opacity="0"/>
    </radialGradient>
  </defs>
  <rect width="800" height="1400" fill="url(#bg)"/>
  <rect x="36" y="36" width="728" height="1328" rx="28" fill="none" stroke="#1f1724" stroke-opacity="0.18" stroke-width="4"/>
  <circle cx="400" cy="240" r="200" fill="url(#starGlow)"/>
  <polygon points="400,190 425,260 500,260 440,304 462,376 400,332 338,376 360,304 300,260 375,260" fill="none" stroke="#1f1724" stroke-width="8" stroke-linejoin="round"/>
  <path d="M250 880 C325 810, 475 810, 550 880" fill="none" stroke="#1f1724" stroke-width="8" stroke-linecap="round"/>
  <path d="M275 950 C340 905, 460 905, 525 950" fill="none" stroke="#c8a97e" stroke-width="6" stroke-linecap="round" opacity="0.95"/>
  <circle cx="400" cy="650" r="92" fill="none" stroke="#1f1724" stroke-width="8" opacity="0.9"/>
  <circle cx="400" cy="650" r="28" fill="#c8a97e" opacity="0.85"/>
  <text x="400" y="110" text-anchor="middle" font-family="Georgia,serif" font-size="48" letter-spacing="7" fill="#6d6574">THE STAR</text>
  <text x="400" y="1320" text-anchor="middle" font-family="Georgia,serif" font-size="40" letter-spacing="6" fill="#6d6574">XVII</text>
</svg>